<svg xmlns="http://www.w3.org/2000/svg" viewBox="0 0 263.39 29.92">
  <defs>
    <style>
      .cls-1 {
        fill: #020000;
      }
    </style>
  </defs>
  <title>Asset 5</title>
  <g id="Layer_2" data-name="Layer 2">
    <g id="表">
      <g id="表-2" data-name="表">
        <g>
          <path class="cls-1" d="M.32,25.75l11.52-14A5.19,5.19,0,0,0,13.2,8.48,4.16,4.16,0,0,0,8.88,4.16c-2.48,0-4.24,1.76-4.24,4.56a3.7,3.7,0,0,0,1.44,2.72L3.2,14.8A7.52,7.52,0,0,1,0,8.72,8.49,8.49,0,0,1,8.88,0c5.2,0,8.88,3.36,8.88,8.48a9.14,9.14,0,0,1-2.4,5.92l-9.2,11h11.6v4.15H.32Z"/>
          <path class="cls-1" d="M22.64,21.2V8.72c0-4.8,3.84-8.72,9.2-8.72S41,3.52,41,8.72V21.2a8.79,8.79,0,0,1-9.12,8.72C26.48,29.92,22.64,26.4,22.64,21.2Zm13.68,0V8.72a4.52,4.52,0,1,0-9,0V21.2a4.52,4.52,0,1,0,9,0Z"/>
          <path class="cls-1" d="M52,7.28l-4.16,4.4-3.2-3,8-8.24h4V29.51H52Z"/>
          <path class="cls-1" d="M63.32,21.2H68a4.43,4.43,0,0,0,4.48,4.55,4.39,4.39,0,0,0,4.48-4.55V19.28a6.31,6.31,0,0,1-4.8,1.92c-5.36,0-8.8-3.52-8.8-8.72V8.72A8.79,8.79,0,0,1,72.44,0c5.36,0,9.12,3.44,9.12,8.64V21.2a8.74,8.74,0,0,1-9.12,8.72C67.16,29.92,63.32,26.4,63.32,21.2Zm13.6-8.72V8.64a4.33,4.33,0,0,0-4.48-4.48A4.37,4.37,0,0,0,68,8.64v3.84A4.44,4.44,0,0,0,72.44,17,4.39,4.39,0,0,0,76.92,12.48Z"/>
          <path class="cls-1" d="M87.32,27.16a2.76,2.76,0,1,1,2.76,2.76A2.77,2.77,0,0,1,87.32,27.16Z"/>
          <path class="cls-1" d="M98.6,21.2V8.72c0-4.8,3.84-8.72,9.2-8.72s9.12,3.52,9.12,8.72V21.2a8.79,8.79,0,0,1-9.12,8.72C102.44,29.92,98.6,26.4,98.6,21.2Zm13.68,0V8.72a4.52,4.52,0,1,0-9,0V21.2a4.52,4.52,0,1,0,9,0Z"/>
          <path class="cls-1" d="M121.8,21.2h4.64a4.34,4.34,0,0,0,4.48,4.55,4.28,4.28,0,0,0,4.48-4.47A4.18,4.18,0,0,0,130.92,17h-2.08V12.88h2.08a4.27,4.27,0,0,0,4.32-4.4,4.16,4.16,0,0,0-4.32-4.32c-2.48,0-4.24,1.76-4.24,4.56H122A8.49,8.49,0,0,1,130.92,0c5.2,0,8.87,3.36,8.87,8.48a8.5,8.5,0,0,1-2.87,6.24,8.21,8.21,0,0,1,3.19,6.56c0,4.8-3.83,8.64-9.19,8.64S121.8,26.48,121.8,21.2Z"/>
          <path class="cls-1" d="M145.88,27.16a2.76,2.76,0,1,1,2.76,2.76A2.77,2.77,0,0,1,145.88,27.16Z"/>
          <path class="cls-1" d="M157.16,21.2V8.72c0-4.8,3.84-8.72,9.2-8.72s9.11,3.52,9.11,8.72V21.2a8.78,8.78,0,0,1-9.11,8.72C161,29.92,157.16,26.4,157.16,21.2Zm13.67,0V8.72a4.52,4.52,0,1,0-9,0V21.2a4.52,4.52,0,1,0,9,0Z"/>
          <path class="cls-1" d="M180.68,25.75l11.51-14a5.19,5.19,0,0,0,1.36-3.28,4.16,4.16,0,0,0-4.32-4.32c-2.47,0-4.23,1.76-4.23,4.56a3.7,3.7,0,0,0,1.44,2.72l-2.88,3.36a7.52,7.52,0,0,1-3.2-6.08A8.49,8.49,0,0,1,189.23,0c5.2,0,8.88,3.36,8.88,8.48a9.14,9.14,0,0,1-2.4,5.92l-9.19,11h11.59v4.15H180.68Z"/>
          <path class="cls-1" d="M203.32,17h12.47V21.2H203.32Z"/>
          <path class="cls-1" d="M221.88,21.2V8.72c0-4.8,3.84-8.72,9.19-8.72s9.12,3.52,9.12,8.72V21.2a8.79,8.79,0,0,1-9.12,8.72C225.72,29.92,221.88,26.4,221.88,21.2Zm13.67,0V8.72a4.52,4.52,0,1,0-9,0V21.2a4.52,4.52,0,1,0,9,0Z"/>
          <path class="cls-1" d="M245.08,21.2h4.64a4.34,4.34,0,0,0,4.47,4.55,4.28,4.28,0,0,0,4.48-4.47A4.18,4.18,0,0,0,254.19,17h-2.08V12.88h2.08a4.27,4.27,0,0,0,4.32-4.4,4.16,4.16,0,0,0-4.32-4.32c-2.47,0-4.23,1.76-4.23,4.56h-4.64A8.49,8.49,0,0,1,254.19,0c5.2,0,8.88,3.36,8.88,8.48a8.51,8.51,0,0,1-2.88,6.24,8.19,8.19,0,0,1,3.2,6.56c0,4.8-3.84,8.64-9.2,8.64S245.08,26.48,245.08,21.2Z"/>
        </g>
      </g>
    </g>
  </g>
</svg>
