<svg xmlns="http://www.w3.org/2000/svg" viewBox="0 0 374.85 66.17">
  <defs>
    <style>
      .cls-1 {
        fill: #020000;
      }
    </style>
  </defs>
  <title>Asset 3</title>
  <g id="Layer_2" data-name="Layer 2">
    <g id="表">
      <g id="表-2" data-name="表">
        <g>
          <path class="cls-1" d="M0,37.69V.89H56.62v9.19H10.44V28.49H55.9v9.2H10.44v27.6H.18Z"/>
          <path class="cls-1" d="M63.48,46.89c0-10.62,9.21-19.29,19.82-19.29,11.5,0,19.81,7.78,19.81,19.29v18.4H93.39V62.1c-2.31,2.48-6.37,4.07-11,4.07C71.27,66.17,63.48,58.39,63.48,46.89Zm29.73,0c0-5.84-4.07-10.09-9.91-10.09a9.72,9.72,0,0,0-9.91,10.09A9.82,9.82,0,0,0,83.3,57,9.71,9.71,0,0,0,93.21,46.89Z"/>
          <path class="cls-1" d="M114.42,46.89V.89h9.91V31.67c2.12-2.47,6.19-4.07,10.79-4.07,11.15,0,18.93,7.78,18.93,19.29,0,10.61-9.2,19.28-19.81,19.28C122.74,66.17,114.42,58.39,114.42,46.89Zm29.72,0c0-5.84-4.06-10.09-9.9-10.09a9.72,9.72,0,0,0-9.91,10.09A9.82,9.82,0,0,0,134.24,57,9.71,9.71,0,0,0,144.14,46.89Z"/>
          <path class="cls-1" d="M162.53,33.09C162.53,14.86,177.75,0,196,0A33.13,33.13,0,0,1,219.5,9.38l-7.08,7.07A21.87,21.87,0,0,0,196,9.38c-13.08,0-22.82,10.61-22.82,23.71s9.74,23.7,22.82,23.7A22.52,22.52,0,0,0,217,42.28H196V33.09h33.27c0,18-15.22,33.08-33.27,33.08C176.33,66.17,162.53,52.73,162.53,33.09Z"/>
          <path class="cls-1" d="M236.81,46.89c0-10.62,9.2-19.29,19.82-19.29,11.49,0,19.1,7.26,19.81,19.29v3.36h-29.9a10.16,10.16,0,0,0,10.09,7.43c3.18,0,4.95-.89,7.6-3.36l6,6.19a19.08,19.08,0,0,1-13.61,5.66C245.12,66.17,236.81,58.39,236.81,46.89Zm29.9-4.25a10,10,0,0,0-10.08-7.07,10.19,10.19,0,0,0-9.91,7.07Z"/>
          <path class="cls-1" d="M286.06,46.89c0-11.51,9.91-19.29,20-19.29,11.5,0,19.64,7.78,19.64,19.29v18.4h-9.91V46.89c0-5.84-4.07-10.09-9.9-10.09A9.72,9.72,0,0,0,296,46.89v18.4h-9.91Z"/>
          <path class="cls-1" d="M335.22,46.89c0-10.62,9.2-19.29,19.82-19.29,11.5,0,19.11,7.26,19.81,19.29v3.36H345A10.14,10.14,0,0,0,355,57.68c3.18,0,4.95-.89,7.61-3.36l6,6.19A19.1,19.1,0,0,1,355,66.17C343.54,66.17,335.22,58.39,335.22,46.89Zm29.9-4.25A10,10,0,0,0,355,35.57a10.2,10.2,0,0,0-9.91,7.07Z"/>
        </g>
        <g>
          <path class="cls-1" d="M246.22,1.89h.83V5.28l3.32-3.39h1l-1.51,1.56L251.42,7h-.91l-1.26-2.91-2.2,2.27V7h-.83Z"/>
          <path class="cls-1" d="M252,1.89h4.48v.73H252.8V4.08h3.6v.73h-3.6V6.26h3.66V7H252Z"/>
          <path class="cls-1" d="M257.32,1.89h.83V7h-.83Z"/>
          <path class="cls-1" d="M259,4.44a2.65,2.65,0,0,1,2.65-2.62,2.51,2.51,0,0,1,2.63,2.62,2.65,2.65,0,0,1-2.63,2.62A2.51,2.51,0,0,1,259,4.44Zm4.44,0a1.8,1.8,0,1,0-3.6,0,1.8,1.8,0,1,0,3.6,0Z"/>
          <path class="cls-1" d="M267,4.83V1.89h.83v3a1.41,1.41,0,1,0,2.81,0v-3h.83V4.83a2.19,2.19,0,0,1-2.27,2.23A2.13,2.13,0,0,1,267,4.83Z"/>
          <path class="cls-1" d="M272.37,1.89h.7l3.67,3.88V1.89h.83V7h-.7L273.2,3.11V7h-.83Z"/>
          <path class="cls-1" d="M278.52,1.89h.83V7h-.83Z"/>
          <path class="cls-1" d="M279.9,1.89h.83L282.45,6l1.74-4.15H285L282.82,7h-.73Z"/>
          <path class="cls-1" d="M285.53,1.89H290v.73h-3.66V4.08H290v.73h-3.6V6.26H290V7h-4.49Z"/>
          <path class="cls-1" d="M290.88,1.89h3a1.43,1.43,0,0,1,1.47,1.46,1.43,1.43,0,0,1-.94,1.37L295.35,7h-.86l-.91-2.18h-1.87V7h-.83Zm2.91,2.19a.69.69,0,0,0,.73-.73.69.69,0,0,0-.73-.73h-2.08V4.08Z"/>
          <path class="cls-1" d="M296,6.26h2.91a.69.69,0,0,0,.73-.73.69.69,0,0,0-.73-.72h-1.54a1.39,1.39,0,0,1-1.45-1.46,1.43,1.43,0,0,1,1.45-1.46H300v.73h-2.56a.69.69,0,0,0-.73.73.69.69,0,0,0,.73.73H299a1.39,1.39,0,0,1,1.45,1.45A1.44,1.44,0,0,1,299,7h-3Z"/>
          <path class="cls-1" d="M301.19,1.89H302V7h-.82Z"/>
          <path class="cls-1" d="M304.57,2.62H302.7V1.89h4.56v.73h-1.87V7h-.82Z"/>
          <path class="cls-1" d="M309.74,4.58l-2.18-2.69h1l1.61,2,1.6-2h1l-2.18,2.69V7h-.83Z"/>
          <path class="cls-1" d="M246.22,13.23h.83v2.19h2.81V13.23h.83v5.1h-.83V16.14h-2.81v2.19h-.83Z"/>
          <path class="cls-1" d="M251.64,13.23h.83v5.1h-.83Z"/>
          <path class="cls-1" d="M253.42,13.23h3a1.43,1.43,0,0,1,1.47,1.46,1.45,1.45,0,0,1-.94,1.37l.94,2.27H257l-.91-2.19h-1.88v2.19h-.82Zm2.91,2.19a.73.73,0,1,0,0-1.46h-2.09v1.46Z"/>
          <path class="cls-1" d="M258.54,15.78a2.65,2.65,0,0,1,2.65-2.62,2.51,2.51,0,0,1,2.63,2.62,2.65,2.65,0,0,1-2.63,2.62A2.52,2.52,0,0,1,258.54,15.78Zm4.44,0a1.8,1.8,0,1,0-1.79,1.88A1.8,1.8,0,0,0,263,15.78Z"/>
          <path class="cls-1" d="M266.45,15.92l-2.18-2.69h1l1.61,2,1.6-2h1l-2.19,2.69v2.41h-.83Z"/>
          <path class="cls-1" d="M271.82,13.23h.72l2.19,5.1h-.81l-.31-.73h-2.86l-.29.73h-.83Zm1.48,3.64-1.12-2.69-1.12,2.69Z"/>
          <path class="cls-1" d="M278.86,14H277v-.73h4.57V14h-1.88v4.37h-.81Z"/>
          <path class="cls-1" d="M284,13.23h.73l2.19,5.1h-.82l-.3-.73H283l-.3.73h-.82Zm1.49,3.64-1.12-2.69-1.12,2.69Z"/>
          <path class="cls-1" d="M287.49,13.23h.7l3.67,3.88V13.23h.83v5.1H292l-3.67-3.88v3.88h-.83Z"/>
          <path class="cls-1" d="M295.43,13.23h.73l2.19,5.1h-.82l-.3-.73h-2.86l-.3.73h-.82Zm1.49,3.64-1.12-2.69-1.12,2.69Z"/>
          <path class="cls-1" d="M298.9,13.23h.83v3.39l3.32-3.39h1l-1.51,1.56,1.54,3.54h-.91l-1.26-2.91-2.2,2.27v.64h-.83Z"/>
          <path class="cls-1" d="M306.45,13.23h.73l2.18,5.1h-.81l-.31-.73h-2.85l-.3.73h-.82Zm1.49,3.64-1.12-2.69-1.13,2.69Z"/>
          <path class="cls-1" d="M311.88,13.23h.83V17.6h2.18v.73h-3Z"/>
          <path class="cls-1" d="M317.24,13.23H318l2.19,5.1h-.81L319,17.6h-2.86l-.29.73h-.83Zm1.49,3.64-1.12-2.69-1.12,2.69Z"/>
          <path class="cls-1" d="M320.72,13.23h3a1.42,1.42,0,0,1,1.45,1.46,1.46,1.46,0,0,1-.49,1.08,1.43,1.43,0,0,1,.52,1.1,1.41,1.41,0,0,1-1.46,1.46h-3Zm2.92,2.19a.73.73,0,1,0,0-1.46h-2.1v1.46Zm.05,2.18a.73.73,0,0,0,0-1.46h-2.15V17.6Z"/>
          <path class="cls-1" d="M329.93,13.23h4.48V14h-3.66v1.46h3.6v.72h-3.6V17.6h3.66v.73h-4.48Z"/>
          <path class="cls-1" d="M337,15.78l-2.11-2.55h1l1.61,2,1.64-2h1L338,15.77l2.12,2.56h-1l-1.62-2-1.64,2h-1Z"/>
          <path class="cls-1" d="M340.66,13.23h.83v2.19h2.82V13.23h.82v5.1h-.82V16.14h-2.82v2.19h-.83Z"/>
          <path class="cls-1" d="M346.08,13.23h.83v5.1h-.83Z"/>
          <path class="cls-1" d="M347.86,13.23h3a1.42,1.42,0,0,1,1.46,1.46,1.5,1.5,0,0,1-.49,1.08,1.45,1.45,0,0,1-.94,2.56h-3Zm2.93,2.19a.73.73,0,1,0,0-1.46h-2.1v1.46Zm0,2.18a.73.73,0,1,0,0-1.46h-2.14V17.6Z"/>
          <path class="cls-1" d="M353.15,13.23H354v5.1h-.83Z"/>
          <path class="cls-1" d="M356.54,14h-1.88v-.73h4.57V14h-1.88v4.37h-.81Z"/>
          <path class="cls-1" d="M359.92,13.23h.82v5.1h-.82Z"/>
          <path class="cls-1" d="M361.58,15.78a2.65,2.65,0,0,1,2.65-2.62,2.51,2.51,0,0,1,2.63,2.62,2.65,2.65,0,0,1-2.63,2.62A2.51,2.51,0,0,1,361.58,15.78Zm4.44,0a1.8,1.8,0,1,0-1.79,1.88A1.8,1.8,0,0,0,366,15.78Z"/>
          <path class="cls-1" d="M367.7,13.23h.7l3.67,3.88V13.23h.83v5.1h-.7l-3.67-3.88v3.88h-.83Z"/>
        </g>
      </g>
    </g>
  </g>
</svg>
